<svg xmlns="http://www.w3.org/2000/svg" width="300" height="100" viewBox="0 0 300 100"><polyline points="205.01 35.37 205.01 0 189.97 0 189.97 68.03 205.01 68.03 205.01 52.36 213.38 44.17 228.65 68.03 244.76 68.03 223.69 35.36 245.24 13.04 227.41 13.04" fill="#b7a271"></polyline><path d="M13.33,35.14c.5-5.31,5.83-12.33,15.55-12.33C38.43,22.68,44,30,44.41,35.14Zm44,10.08C58.41,35.63,56,27,49.29,20a28.29,28.29,0,0,0-20.48-8.37C12.19,11.67,0,25.39,0,41a28.83,28.83,0,0,0,29,29,27.35,27.35,0,0,0,15.61-4.74A31.16,31.16,0,0,0,55.76,51.4H42.26c-2.55,4.42-6.81,7.4-13.23,7.4-7.47,0-15.3-4.82-15.87-13.58Z" fill="#111"></path><path d="M74.32,40.46c0-8.53,6.2-16.73,16.85-16.73a16.63,16.63,0,0,1,11.9,4.73,16.23,16.23,0,0,1,4.87,11.8,16.23,16.23,0,0,1-4.67,12.22,17.15,17.15,0,0,1-12.18,5C81,57.48,74.35,49.9,74.32,40.56Zm46-40.4H107.19V20.25c-2-3.2-7.87-8.77-18.42-8.77-14.84,0-27.58,11.32-27.58,29.05,0,16.09,10.87,29.21,27.81,29.21,11.19,0,16.39-5.5,18.79-9.6v7.92h12.53Z" fill="#111"></path><path d="M179.85,13.09H166.72V43.35c0,7.75-3.2,13.94-12.58,14s-12-6.28-12-14.43V13.09H129V46.21c0,9.6,3.4,23.37,21.44,23.47,9.84,0,14.76-4.72,17.09-9.05,0,2.52,0,4.9,0,7.3h12.3Z" fill="#111"></path><path d="M300,40.78a29,29,0,0,1-6.59,18.44,19.76,19.76,0,0,1-.24-37.16A29,29,0,0,1,300,40.78" fill="#d4c7aa"></path><path d="M241.78,40.78a29.07,29.07,0,0,1,43.91-25,28.69,28.69,0,0,0,.3,49.89,29.06,29.06,0,0,1-44.21-24.85" fill="#b7a271"></path><path d="M280.68,94.64a3.21,3.21,0,0,1-1.9-.56,3.49,3.49,0,0,1-1.2-1.6,6.64,6.64,0,0,1-.42-2.5,6.78,6.78,0,0,1,.42-2.52,3.6,3.6,0,0,1,1.2-1.62,3.37,3.37,0,0,1,3.75,0,3.51,3.51,0,0,1,1.19,1.62,7,7,0,0,1,.41,2.52,6.85,6.85,0,0,1-.41,2.5,3.39,3.39,0,0,1-1.18,1.6,3.08,3.08,0,0,1-1.86.56m-.05,1.75a5.92,5.92,0,0,0,3.15-.82,5.65,5.65,0,0,0,2.11-2.25,7,7,0,0,0,.76-3.29,7.22,7.22,0,0,0-.75-3.35,5.66,5.66,0,0,0-2.08-2.28,5.93,5.93,0,0,0-3.16-.83,5.87,5.87,0,0,0-3.11.82,5.71,5.71,0,0,0-2.14,2.27,7.18,7.18,0,0,0-.76,3.39,7,7,0,0,0,.74,3.3,5.51,5.51,0,0,0,2.1,2.23,6,6,0,0,0,3.14.81m-7.92-10.82c.22,0,.33-.09.33-.28V84.06c0-.17-.1-.26-.28-.26H270a.19.19,0,0,1-.21-.21V80c0-.25-.1-.37-.3-.37h-1.61c-.17,0-.26.11-.28.32l-.28,3.66q0,.21-.18.21h-1.87c-.19,0-.28.09-.28.26v1.23c0,.19.1.28.3.28H267c.16,0,.23.1.23.28v7.39a2.89,2.89,0,0,0,.76,2.2,3.2,3.2,0,0,0,2.28.71H271l.88,0c.29,0,.54,0,.74-.07a.4.4,0,0,0,.35-.4v-1a.29.29,0,0,0-.07-.2.27.27,0,0,0-.21-.08h-1.49a1.59,1.59,0,0,1-1.14-.36,1.89,1.89,0,0,1-.38-1.36V85.81q0-.24.21-.24Zm-11.14,1.12a.39.39,0,0,0,.2.12.27.27,0,0,0,.2,0l1.21-.63a.21.21,0,0,0,.12-.2.54.54,0,0,0-.1-.2,4.62,4.62,0,0,0-1.86-1.57,7,7,0,0,0-5.47-.13,4.08,4.08,0,0,0-1.71,1.34,3.37,3.37,0,0,0-.6,2,2.76,2.76,0,0,0,.76,2,5.38,5.38,0,0,0,2.54,1.28l2.38.61a4.08,4.08,0,0,1,1.6.71,1.25,1.25,0,0,1,.45,1,1.33,1.33,0,0,1-.37.94,2.39,2.39,0,0,1-1,.61,4.55,4.55,0,0,1-1.48.23,5.11,5.11,0,0,1-1.67-.25,3.5,3.5,0,0,1-1.19-.66,5,5,0,0,1-.87-1,.18.18,0,0,0-.15-.1.43.43,0,0,0-.26.08l-1.15.6a.23.23,0,0,0-.09.18.79.79,0,0,0,0,.24,4.47,4.47,0,0,0,2,1.83,7.07,7.07,0,0,0,3.32.74,7.25,7.25,0,0,0,2.69-.47,4.36,4.36,0,0,0,1.84-1.29,3.11,3.11,0,0,0,.67-2,3,3,0,0,0-.75-2,4.6,4.6,0,0,0-2.45-1.33l-2.86-.82a2.8,2.8,0,0,1-1.4-.7,1.22,1.22,0,0,1-.33-.79,1.44,1.44,0,0,1,.76-1.3,3.57,3.57,0,0,1,1.9-.47,4,4,0,0,1,1.89.42,3.4,3.4,0,0,1,1.23,1.07m-10.93-7.45c0-.25-.11-.38-.32-.38h-1.94c-.23,0-.35.14-.35.4v2.12a.62.62,0,0,0,.08.33.43.43,0,0,0,.34.11h1.73c.31,0,.46-.16.46-.49Zm-.07,4.89c0-.22-.09-.33-.28-.33h-1.86c-.22,0-.33.12-.33.35V95.78a.42.42,0,0,0,.08.29.48.48,0,0,0,.34.08h1.59a.56.56,0,0,0,.36-.09.46.46,0,0,0,.1-.35Zm-14.24,9.16V87.67a2,2,0,0,1,.39-1.12,3,3,0,0,1,1.06-.93,3.11,3.11,0,0,1,1.54-.37,3.3,3.3,0,0,1,1.7.45,3.14,3.14,0,0,1,1.22,1.46,6.55,6.55,0,0,1,.46,2.66,7.14,7.14,0,0,1-.45,2.73A3.39,3.39,0,0,1,241,94.17a3.13,3.13,0,0,1-1.83.54,3.1,3.1,0,0,1-1.55-.39,5.64,5.64,0,0,1-1.32-1m-.39-9.49h-1.63a.46.46,0,0,0-.35.1.41.41,0,0,0-.1.32V99.67c0,.22.1.33.31.33h1.88c.19,0,.28-.11.28-.33V95.36c0-.18,0-.29.1-.31s.16,0,.3.17a4.54,4.54,0,0,0,1.41.85,5,5,0,0,0,1.83.32,4.93,4.93,0,0,0,2.74-.76,5,5,0,0,0,1.84-2.21,8.74,8.74,0,0,0,.66-3.6,8.09,8.09,0,0,0-.66-3.5,4.68,4.68,0,0,0-1.8-2.06,4.78,4.78,0,0,0-2.55-.69,4.43,4.43,0,0,0-1.69.28,4.6,4.6,0,0,0-1.13.64c-.29.24-.54.46-.74.66s-.17.12-.22.11-.09-.07-.09-.18v-.9a.34.34,0,0,0-.39-.38M225.05,94.64a3.18,3.18,0,0,1-1.89-.56,3.49,3.49,0,0,1-1.2-1.6,6.64,6.64,0,0,1-.42-2.5,6.78,6.78,0,0,1,.42-2.52,3.6,3.6,0,0,1,1.2-1.62,3.37,3.37,0,0,1,3.75,0,3.58,3.58,0,0,1,1.19,1.62,7,7,0,0,1,.4,2.52,6.86,6.86,0,0,1-.4,2.5,3.52,3.52,0,0,1-1.18,1.6,3.12,3.12,0,0,1-1.87.56m0,1.75a5.91,5.91,0,0,0,3.14-.82,5.52,5.52,0,0,0,2.11-2.25A6.86,6.86,0,0,0,231,90a7.22,7.22,0,0,0-.75-3.35,5.6,5.6,0,0,0-2.08-2.28,6.37,6.37,0,0,0-6.27,0,5.62,5.62,0,0,0-2.13,2.27,7.79,7.79,0,0,0,0,6.69,5.51,5.51,0,0,0,2.1,2.23,6,6,0,0,0,3.15.81m-8.79-17.15c0-.25-.11-.38-.32-.38H214c-.23,0-.35.14-.35.4v2.12a.62.62,0,0,0,.08.33.43.43,0,0,0,.34.11h1.73c.31,0,.46-.16.46-.49Zm-.07,4.89c0-.22-.09-.33-.28-.33H214c-.22,0-.33.12-.33.35V95.78a.42.42,0,0,0,.08.29.48.48,0,0,0,.34.08h1.59a.56.56,0,0,0,.36-.09.46.46,0,0,0,.1-.35Zm-5.38,1.44c.22,0,.33-.09.33-.28V84.06c0-.17-.1-.26-.28-.26H208a.19.19,0,0,1-.21-.21V80c0-.25-.1-.37-.3-.37H205.9c-.17,0-.26.11-.28.32l-.28,3.66c0,.14-.06.21-.19.21h-1.86c-.19,0-.28.09-.28.26v1.23c0,.19.1.28.3.28h1.75c.16,0,.23.1.23.28v7.39a2.89,2.89,0,0,0,.76,2.2,3.19,3.19,0,0,0,2.27.71h.76c.29,0,.58,0,.87,0s.55,0,.75-.07a.4.4,0,0,0,.35-.4v-1a.26.26,0,0,0-.28-.28h-1.49a1.57,1.57,0,0,1-1.14-.36,1.89,1.89,0,0,1-.38-1.36V85.81q0-.24.21-.24Zm-9.58,0c.22,0,.33-.09.33-.28V84.06c0-.17-.09-.26-.28-.26h-2.8a.19.19,0,0,1-.21-.21V80c0-.25-.1-.37-.3-.37h-1.61c-.17,0-.26.11-.28.32l-.28,3.66q0,.21-.18.21h-1.87c-.19,0-.28.09-.28.26v1.23c0,.19.1.28.31.28h1.74c.16,0,.24.1.24.28v7.39a2.89,2.89,0,0,0,.75,2.2,3.21,3.21,0,0,0,2.28.71h.75l.88,0c.29,0,.54,0,.74-.07a.39.39,0,0,0,.35-.4v-1a.29.29,0,0,0-.07-.2.26.26,0,0,0-.21-.08H199.7a1.59,1.59,0,0,1-1.14-.36,1.89,1.89,0,0,1-.37-1.36V85.81q0-.24.21-.24Zm-12.12,4.78v1.82a1.46,1.46,0,0,1-.26.81,3.5,3.5,0,0,1-.74.82,4.07,4.07,0,0,1-1.08.62,3.6,3.6,0,0,1-1.32.24,2.63,2.63,0,0,1-1.73-.52,1.75,1.75,0,0,1-.65-1.43,1.8,1.8,0,0,1,.32-1.06,2.74,2.74,0,0,1,.86-.79,5.34,5.34,0,0,1,1.32-.52,8.6,8.6,0,0,1,1.7-.24l1.26-.1c.22,0,.32.09.32.35m-.34,4.41c.21-.22.34-.21.39,0l0,.89a.8.8,0,0,0,.12.34.31.31,0,0,0,.26.12h1.58a.35.35,0,0,0,.27-.08.46.46,0,0,0,.08-.31V87.53a4.1,4.1,0,0,0-.52-2.11,3.34,3.34,0,0,0-1.6-1.37,6.75,6.75,0,0,0-2.75-.48,6.92,6.92,0,0,0-3.23.69,4.66,4.66,0,0,0-2,1.94.56.56,0,0,0-.06.32.33.33,0,0,0,.13.13l1.59.46a.34.34,0,0,0,.25,0,.46.46,0,0,0,.14-.16,4.06,4.06,0,0,1,1.38-1.31,3.42,3.42,0,0,1,1.67-.42,2.7,2.7,0,0,1,1.92.67,2.37,2.37,0,0,1,.69,1.8v.59c0,.12,0,.21-.11.25a.74.74,0,0,1-.26.1l-1.51.11a11.61,11.61,0,0,0-3.44.63,4.91,4.91,0,0,0-2.14,1.45,3.35,3.35,0,0,0-.74,2.19,3.12,3.12,0,0,0,1,2.44,4,4,0,0,0,2.82.94,5.55,5.55,0,0,0,2.21-.42,6.2,6.2,0,0,0,1.8-1.21m-28,1.39h1.66c.29,0,.44-.13.44-.39V87.18a9.09,9.09,0,0,1,1.66-1.31,3.13,3.13,0,0,1,1.62-.44,1.94,1.94,0,0,1,1.57.59,2.44,2.44,0,0,1,.48,1.6v8.16a.37.37,0,0,0,.1.29.34.34,0,0,0,.25.08h1.71a.37.37,0,0,0,.41-.41V87.58a.9.9,0,0,1,.07-.37,1.24,1.24,0,0,1,.24-.31,9.72,9.72,0,0,1,.8-.66,4.2,4.2,0,0,1,1-.57,2.9,2.9,0,0,1,1.16-.24,2,2,0,0,1,1.54.59,2.35,2.35,0,0,1,.51,1.6v8.16a.42.42,0,0,0,.08.29.33.33,0,0,0,.25.08H178a.37.37,0,0,0,.42-.41V87.18a3.62,3.62,0,0,0-.94-2.63,3.48,3.48,0,0,0-2.62-1,4.21,4.21,0,0,0-1.47.26,6,6,0,0,0-1.38.71,10.64,10.64,0,0,0-1.35,1.08.53.53,0,0,1-.17.12.11.11,0,0,1-.13-.07,3.06,3.06,0,0,0-1.14-1.48,3.6,3.6,0,0,0-2.17-.62,4.42,4.42,0,0,0-1.43.22,5.45,5.45,0,0,0-1.3.65q-.63.44-1.35,1c-.06.08-.12.1-.16.08s-.07-.07-.07-.15V84.11c0-.21-.09-.31-.28-.31h-1.82c-.2,0-.3.12-.3.35V95.78a.32.32,0,0,0,.37.37m-21.44,0h1.66c.29,0,.44-.13.44-.39V87.18A9.11,9.11,0,0,1,143,85.87a3.07,3.07,0,0,1,1.62-.44,1.93,1.93,0,0,1,1.56.59,2.45,2.45,0,0,1,.49,1.6v8.16a.37.37,0,0,0,.09.29.34.34,0,0,0,.25.08h1.71a.37.37,0,0,0,.42-.41V87.58a.76.76,0,0,1,.07-.37,1,1,0,0,1,.23-.31,9.72,9.72,0,0,1,.8-.66,4.4,4.4,0,0,1,1-.57,2.9,2.9,0,0,1,1.16-.24A2,2,0,0,1,154,86a2.35,2.35,0,0,1,.51,1.6v8.16a.42.42,0,0,0,.08.29.33.33,0,0,0,.25.08h1.72a.37.37,0,0,0,.42-.41V87.18a3.62,3.62,0,0,0-.94-2.63,3.48,3.48,0,0,0-2.62-1,4.25,4.25,0,0,0-1.47.26,6,6,0,0,0-1.38.71,10.64,10.64,0,0,0-1.35,1.08.53.53,0,0,1-.17.12.11.11,0,0,1-.13-.07,3.06,3.06,0,0,0-1.14-1.48,3.58,3.58,0,0,0-2.17-.62,4.42,4.42,0,0,0-1.43.22,5.45,5.45,0,0,0-1.3.65q-.63.44-1.35,1c-.06.08-.11.1-.16.08s-.07-.07-.07-.15V84.11c0-.21-.09-.31-.28-.31h-1.82c-.2,0-.3.12-.3.35V95.78a.32.32,0,0,0,.37.37m-13.63-6.82c-.19,0-.24-.1-.16-.31L128,82q.08-.21.15-.21c.06,0,.12.06.18.19l2.52,7c.07.22,0,.33-.19.33ZM121,96.15h1.8a.44.44,0,0,0,.26-.05.35.35,0,0,0,.13-.18l1.52-4.22a.27.27,0,0,1,.28-.18h6.45a.35.35,0,0,1,.2,0,.25.25,0,0,1,.08.17l1.49,4.14a.38.38,0,0,0,.4.28h2.19A.27.27,0,0,0,136,96a.42.42,0,0,0,0-.31l-5.9-16.43a.57.57,0,0,0-.58-.4H127.2a.56.56,0,0,0-.32.08.62.62,0,0,0-.19.3l-5.94,16.43a.4.4,0,0,0,0,.34.22.22,0,0,0,.23.14m-18.34,0h1.66c.29,0,.44-.13.44-.39V87.18a11.94,11.94,0,0,1,1.19-1,4.54,4.54,0,0,1,1.07-.59,3.36,3.36,0,0,1,1.16-.2,2.15,2.15,0,0,1,1.66.59,2.26,2.26,0,0,1,.53,1.6v8.16a.37.37,0,0,0,.09.29.33.33,0,0,0,.26.08h1.73c.26,0,.39-.14.39-.41v-8.6a3.49,3.49,0,0,0-1-2.59,3.74,3.74,0,0,0-2.75-1,4.62,4.62,0,0,0-1.47.22,5.84,5.84,0,0,0-1.33.65c-.44.29-.89.63-1.37,1-.08.08-.14.1-.18.08s-.06-.07-.06-.15V84.11c0-.21-.09-.31-.28-.31h-1.84c-.2,0-.3.12-.3.35V95.78a.32.32,0,0,0,.37.37m-6.15-5.8v1.82a1.48,1.48,0,0,1-.27.81,3.45,3.45,0,0,1-.73.82,4,4,0,0,1-1.09.62,3.58,3.58,0,0,1-1.31.24,2.67,2.67,0,0,1-1.74-.52,1.75,1.75,0,0,1-.64-1.43A1.79,1.79,0,0,1,91,91.65a2.67,2.67,0,0,1,.87-.79,5.11,5.11,0,0,1,1.31-.52,8.7,8.7,0,0,1,1.7-.24l1.26-.1c.22,0,.33.09.33.35m-.35,4.41c.22-.22.35-.21.4,0l0,.89a.6.6,0,0,0,.12.34.29.29,0,0,0,.25.12h1.59a.36.36,0,0,0,.27-.08.46.46,0,0,0,.08-.31V87.53a4.11,4.11,0,0,0-.53-2.11,3.36,3.36,0,0,0-1.59-1.37A6.81,6.81,0,0,0,94,83.57a6.89,6.89,0,0,0-3.23.69,4.61,4.61,0,0,0-2,1.94c-.07.16-.09.26-.06.32a.24.24,0,0,0,.13.13l1.58.46a.37.37,0,0,0,.26,0,.58.58,0,0,0,.14-.16,4,4,0,0,1,1.37-1.31,3.43,3.43,0,0,1,1.68-.42,2.68,2.68,0,0,1,1.91.67,2.34,2.34,0,0,1,.7,1.8v.59a.26.26,0,0,1-.12.25.77.77,0,0,1-.25.1l-1.52.11a11.67,11.67,0,0,0-3.44.63A4.91,4.91,0,0,0,89,90.82,3.35,3.35,0,0,0,88.29,93a3.14,3.14,0,0,0,1,2.44,4,4,0,0,0,2.82.94A5.63,5.63,0,0,0,94.35,96a6,6,0,0,0,1.79-1.21M85.65,79.21c0-.23-.1-.35-.3-.35H83.51c-.2,0-.3.12-.3.35l0,16.57c0,.25.14.37.42.37h1.58a.62.62,0,0,0,.39-.09.46.46,0,0,0,.1-.35ZM74.35,94.64a3.21,3.21,0,0,1-1.9-.56,3.49,3.49,0,0,1-1.2-1.6,6.64,6.64,0,0,1-.42-2.5,6.78,6.78,0,0,1,.42-2.52,3.6,3.6,0,0,1,1.2-1.62,3.37,3.37,0,0,1,3.75,0,3.51,3.51,0,0,1,1.19,1.62A7,7,0,0,1,77.8,90a6.85,6.85,0,0,1-.41,2.5,3.44,3.44,0,0,1-1.17,1.6,3.14,3.14,0,0,1-1.87.56m0,1.75a5.92,5.92,0,0,0,3.15-.82,5.59,5.59,0,0,0,2.11-2.25A7,7,0,0,0,80.32,90a7.22,7.22,0,0,0-.75-3.35,5.66,5.66,0,0,0-2.08-2.28,5.93,5.93,0,0,0-3.16-.83,5.87,5.87,0,0,0-3.11.82,5.71,5.71,0,0,0-2.14,2.27,7.18,7.18,0,0,0-.76,3.39,7,7,0,0,0,.74,3.3,5.51,5.51,0,0,0,2.1,2.23,6,6,0,0,0,3.14.81M66.89,83.8H65.52a.37.37,0,0,0-.26.09,1,1,0,0,0-.16.19l-3.31,8.44c-.14.31-.26.32-.37,0l-3.36-8.43a.28.28,0,0,0-.14-.22.4.4,0,0,0-.25-.09H55.73a.32.32,0,0,0-.27.12.38.38,0,0,0,0,.3l4.68,11.56a.62.62,0,0,0,.63.37h1.1a.57.57,0,0,0,.6-.39L67.15,84.2a.28.28,0,0,0,0-.28.28.28,0,0,0-.26-.12M47.11,94.52a2,2,0,0,1-1.57-.63A2.34,2.34,0,0,1,45,92.26V84.18c0-.25-.11-.38-.34-.38H42.91a.37.37,0,0,0-.42.42v8.55A3.72,3.72,0,0,0,43,94.69a3.28,3.28,0,0,0,1.31,1.25,3.86,3.86,0,0,0,1.87.45,5.07,5.07,0,0,0,2-.42,8.53,8.53,0,0,0,2.17-1.49c.07-.08.13-.11.17-.09a.18.18,0,0,1,.06.16v1.3c0,.2.09.3.28.3h1.82c.18,0,.28-.1.28-.32l0-11.65a.33.33,0,0,0-.37-.38H50.93c-.29,0-.44.14-.44.4v8.48A7.77,7.77,0,0,1,48.87,94a3.29,3.29,0,0,1-1.76.5m-13.28.12a3.19,3.19,0,0,1-1.9-.56,3.49,3.49,0,0,1-1.2-1.6,6.64,6.64,0,0,1-.42-2.5,6.78,6.78,0,0,1,.42-2.52,3.6,3.6,0,0,1,1.2-1.62,3.37,3.37,0,0,1,3.75,0,3.51,3.51,0,0,1,1.19,1.62,7,7,0,0,1,.4,2.52,6.86,6.86,0,0,1-.4,2.5,3.45,3.45,0,0,1-1.18,1.6,3.08,3.08,0,0,1-1.86.56m0,1.75a5.94,5.94,0,0,0,3.15-.82A5.56,5.56,0,0,0,39,93.32,6.86,6.86,0,0,0,39.79,90a7.34,7.34,0,0,0-.74-3.35A5.69,5.69,0,0,0,37,84.4a6.37,6.37,0,0,0-6.27,0,5.62,5.62,0,0,0-2.13,2.27,7.18,7.18,0,0,0-.77,3.39,7,7,0,0,0,.75,3.3,5.42,5.42,0,0,0,2.09,2.23,6,6,0,0,0,3.15.81m-7-.63-5.92-10.3a.34.34,0,0,1,0-.4L26,79.26c.09-.11.11-.2.06-.28a.33.33,0,0,0-.29-.12h-2a.74.74,0,0,0-.34.06.85.85,0,0,0-.24.2l-7,8.18c-.06.08-.12.11-.16.1s-.07-.06-.07-.17V79.17c0-.21-.1-.31-.28-.31H13.46q-.3,0-.3.33V95.78a.37.37,0,0,0,.09.29.42.42,0,0,0,.3.08h2q.45,0,.45-.39V91.05a.63.63,0,0,1,.16-.44l2.49-2.87c.16-.18.28-.2.37,0l4.71,8.21a.51.51,0,0,0,.49.25h2.43c.12,0,.19,0,.22-.11a.39.39,0,0,0-.06-.28" fill="#111"></path></svg>